<svg xmlns="http://www.w3.org/2000/svg" width="13" height="13" viewBox="0 0 13 13"><defs><style>.a{fill:#fbbd00;}.b{fill:#0f9d58;}.c{fill:#31aa52;}.d{fill:#3c79e6;}.e{fill:#cf2d48;}.f{fill:#eb4132;}</style></defs><path class="a" d="M3.047,104.17a3.432,3.432,0,0,1,.486-1.764v-2.191H1.341a6.5,6.5,0,0,0,0,7.911H3.533v-2.191A3.432,3.432,0,0,1,3.047,104.17Z" transform="translate(0 -97.67)"/><path class="b" d="M197.523,373.444,196,374.968l1.523,1.523a6.451,6.451,0,0,0,3.955-1.341v-2.189H199.29A3.453,3.453,0,0,1,197.523,373.444Z" transform="translate(-191.023 -363.491)"/><path class="c" d="M55.014,325.477l-2.191,2.191a6.6,6.6,0,0,0,.563.641,6.458,6.458,0,0,0,4.6,1.9v-3.047A3.455,3.455,0,0,1,55.014,325.477Z" transform="translate(-51.482 -317.213)"/><path class="d" d="M262.5,198.814a6.556,6.556,0,0,0-.106-1.178l-.057-.312H256v3.047h3.084a3.437,3.437,0,0,1-1.317,1.413l2.189,2.189a6.6,6.6,0,0,0,.641-.563A6.458,6.458,0,0,0,262.5,198.814Z" transform="translate(-249.5 -192.314)"/><path class="e" d="M199.965,4.058l.269.269,2.154-2.154L202.12,1.9a6.457,6.457,0,0,0-4.6-1.9L196,1.523l1.523,1.523A3.431,3.431,0,0,1,199.965,4.058Z" transform="translate(-191.023)"/><path class="f" d="M57.981,3.047V0a6.458,6.458,0,0,0-4.6,1.9,6.6,6.6,0,0,0-.563.641l2.191,2.191a3.455,3.455,0,0,1,2.967-1.689Z" transform="translate(-51.481 0)"/></svg>