<svg xmlns="http://www.w3.org/2000/svg" width="37.432" height="37.43" viewBox="0 0 37.432 37.43">
  <g id="Group_1154" data-name="Group 1154" transform="translate(-8954 2191)">
    <g id="Component_32_1" data-name="Component 32 – 1" transform="translate(8954 -2191)">
      <path id="Path_243" data-name="Path 243" d="M79.311,187.527c-1.113-4.873-3.851-8.314-8.734-9.836a25.165,25.165,0,0,0-6.679-1.068,36.213,36.213,0,0,0-11.279.91,12.066,12.066,0,0,0-8.791,8.245,25.929,25.929,0,0,0-1.193,7.451,36.178,36.178,0,0,0,.818,10.313c1.113,4.237,3.475,7.406,7.712,8.973a22.177,22.177,0,0,0,6.372,1.318,40.289,40.289,0,0,0,11.438-.555c5.486-1.2,8.961-4.475,10.268-9.984a33.2,33.2,0,0,0,.772-8.11A31.27,31.27,0,0,0,79.311,187.527Z" transform="translate(-42.599 -176.56)" fill="none"/>
      <path id="social-media" d="M19.186,8.576h0L11.141.531a1.815,1.815,0,0,0-2.567,0L.535,8.57l-.008.008a1.814,1.814,0,0,0,1.208,3.093l.056,0h.321v5.919a2.127,2.127,0,0,0,2.125,2.124H7.383a.578.578,0,0,0,.578-.578V14.5a.97.97,0,0,1,.969-.969h1.856a.97.97,0,0,1,.969.969v4.641a.578.578,0,0,0,.578.578h3.147A2.127,2.127,0,0,0,17.6,17.593V11.674h.3a1.815,1.815,0,0,0,1.285-3.1Zm0,0" transform="translate(8.604 8.652)" fill="#8689a8"/>
    </g>
  </g>
</svg>
