<svg xmlns="http://www.w3.org/2000/svg" width="19.715" height="19.718" viewBox="0 0 19.715 19.718"><defs><style>.a{fill:#fff;}</style></defs><path class="a" d="M19.186,8.576h0L11.141.531a1.815,1.815,0,0,0-2.567,0L.535,8.57l-.008.008a1.814,1.814,0,0,0,1.208,3.093l.056,0h.321v5.919a2.127,2.127,0,0,0,2.125,2.124H7.383a.578.578,0,0,0,.578-.578V14.5a.97.97,0,0,1,.969-.969h1.856a.97.97,0,0,1,.969.969v4.641a.578.578,0,0,0,.578.578h3.147A2.127,2.127,0,0,0,17.6,17.593V11.674h.3a1.815,1.815,0,0,0,1.285-3.1Zm0,0" transform="translate(0 0.001)"/></svg>