<svg xmlns="http://www.w3.org/2000/svg" width="72.787" height="48.462" viewBox="0 0 72.787 48.462">
  <g id="Group_572" data-name="Group 572" transform="translate(-684 -356.603)">
    <path id="origami" d="M72.768,11.442c0-.029.013-.058.016-.087a1.277,1.277,0,0,0-.012-.271c0-.023,0-.045,0-.068a1.216,1.216,0,0,0-.121-.35c-.01-.019-.023-.038-.034-.057,0,0,0-.006,0-.01s0,0-.006-.007-.016-.028-.024-.04a1.2,1.2,0,0,0-.268-.279c-.023-.017-.05-.027-.074-.042a1.162,1.162,0,0,0-.286-.141,1.045,1.045,0,0,0-.136-.03,1.171,1.171,0,0,0-.269-.024,1.135,1.135,0,0,0-.143.011c-.032,0-.062,0-.093.007L.967,24.591A1.212,1.212,0,0,0,.646,26.85L20.8,37.482,24.337,57.1c0,.015,0,.03,0,.045a1.139,1.139,0,0,0,0,.287,1.118,1.118,0,0,0,.024.142,1.169,1.169,0,0,0,.133.325c.012.019.012.042.025.062a.09.09,0,0,0,.015.016c.016.023.038.041.056.064a1.239,1.239,0,0,0,.184.189c.011.008.018.022.03.03s.039.017.057.029a1.234,1.234,0,0,0,.231.12c.033.012.063.027.1.036a1.214,1.214,0,0,0,.336.053h0l.015,0,.062,0a1.2,1.2,0,0,0,.863-.382l13.426-8.951L53.951,58.3a1.212,1.212,0,0,0,1.8-.6L72.71,11.665a1.108,1.108,0,0,0,.04-.127c0-.018.006-.036.01-.053S72.766,11.457,72.768,11.442ZM58.732,19.177,29.656,40.556a1.18,1.18,0,0,0-.126.12.5.5,0,0,0-.045.042c-.025.028-.048.056-.071.086s-.039.059-.058.09a1.239,1.239,0,0,0-.111.228c-.006.016-.016.028-.021.044s-.006.007-.007.012L25.883,52.008,23.242,37.356ZM27.762,54.34l3.3-10.912,5.143,3.344,1.471.956-5,3.331ZM63.071,14.232,21.9,35.32,4.764,26.281ZM54,55.443,35.331,43.309,32.5,41.471,69.046,14.6Z" transform="translate(684 346.569)" fill="#1edf92"/>
  </g>
</svg>
