<svg xmlns="http://www.w3.org/2000/svg" width="23.715" height="15.955" viewBox="0 0 23.715 15.955">
  <path id="origami" d="M23.207,10.483c0-.009,0-.019.005-.028a.407.407,0,0,0,0-.087c0-.007,0-.014,0-.022a.388.388,0,0,0-.039-.112l-.011-.018s0,0,0,0l0,0-.008-.013a.381.381,0,0,0-.085-.089c-.007-.005-.016-.009-.024-.014a.37.37,0,0,0-.091-.045.333.333,0,0,0-.043-.01.373.373,0,0,0-.086-.008.362.362,0,0,0-.046,0c-.01,0-.02,0-.03,0L.308,14.677a.387.387,0,0,0-.1.72l6.428,3.391,1.127,6.256s0,.01,0,.014a.363.363,0,0,0,0,.092.357.357,0,0,0,.008.045.373.373,0,0,0,.043.1c0,.006,0,.014.008.02l0,.005c.005.007.012.013.018.02a.4.4,0,0,0,.059.06s.006.007.01.01.012.005.018.009A.394.394,0,0,0,8,25.461l.031.012a.387.387,0,0,0,.107.017h.026a.384.384,0,0,0,.275-.122l4.282-2.855,4.483,2.914a.386.386,0,0,0,.573-.191l5.409-14.682a.354.354,0,0,0,.013-.041c0-.006,0-.012,0-.017S23.206,10.488,23.207,10.483ZM18.73,12.95,9.458,19.768a.377.377,0,0,0-.04.038L9.4,19.82l-.023.027c-.007.009-.012.019-.019.029a.4.4,0,0,0-.036.073c0,.005-.005.009-.007.014l0,0L8.254,23.42l-.842-4.673ZM8.854,24.164l1.054-3.48,1.64,1.066.469.3-1.594,1.062Zm11.26-12.791L6.984,18.1,1.519,15.216ZM17.221,24.516l-5.954-3.869-.9-.586L22.02,11.491Z" transform="translate(0.252 -9.785)" fill="#0030b4" stroke="#0030b4" stroke-width="0.5"/>
</svg>
