<svg xmlns="http://www.w3.org/2000/svg" width="23.258" height="23.257" viewBox="0 0 23.258 23.257">
  <g id="Group_1131" data-name="Group 1131" transform="translate(-157.8 -240.712)">
    <path id="Path_243" data-name="Path 243" d="M65.41,183.374a7.693,7.693,0,0,0-5.427-6.112,15.636,15.636,0,0,0-4.15-.664,22.5,22.5,0,0,0-7.008.565,7.5,7.5,0,0,0-5.462,5.123,16.111,16.111,0,0,0-.741,4.63,22.479,22.479,0,0,0,.508,6.408,7.535,7.535,0,0,0,4.792,5.575,13.781,13.781,0,0,0,3.959.819,25.033,25.033,0,0,0,7.107-.345,7.779,7.779,0,0,0,6.38-6.2,20.628,20.628,0,0,0,.48-5.039A19.429,19.429,0,0,0,65.41,183.374Z" transform="translate(115.201 64.151)" fill="red" opacity="0.09"/>
    <g id="shielded" transform="translate(163.807 246.198)">
      <path id="Path_215" data-name="Path 215" d="M50.995,2.172,45.86.04a.524.524,0,0,0-.4,0L40.323,2.172A.524.524,0,0,0,40,2.656V5.248a8.775,8.775,0,0,0,5.461,8.127.524.524,0,0,0,.4,0,8.775,8.775,0,0,0,5.461-8.127V2.656A.524.524,0,0,0,50.995,2.172ZM50.27,5.248a7.729,7.729,0,0,1-4.611,7.073,7.729,7.729,0,0,1-4.611-7.073V3.006l4.611-1.914L50.27,3.006ZM45.08,7.014l2.252-2.252a.524.524,0,1,1,.741.741L45.45,8.126a.524.524,0,0,1-.741,0L43.245,6.661a.524.524,0,1,1,.741-.741Z" transform="translate(-40 0)" fill="red"/>
    </g>
  </g>
</svg>
