<svg xmlns="http://www.w3.org/2000/svg" width="18.917" height="18.094" viewBox="0 0 18.917 18.094"><defs><style>.a{fill:#101654;}</style></defs><g transform="translate(0 -0.332)"><path class="a" d="M161.875,220.234H149.949a.617.617,0,1,1,0-1.234h11.926a.617.617,0,0,1,0,1.234Zm0,0" transform="translate(-143.575 -210.238)"/><path class="a" d="M153.246,141.466a.612.612,0,0,1-.436-.181l-3.29-3.29a.617.617,0,0,1,0-.873l3.29-3.29a.617.617,0,1,1,.873.873l-2.854,2.854,2.854,2.854a.616.616,0,0,1-.437,1.053Zm0,0" transform="translate(-143.582 -128.181)"/><path class="a" d="M9.047,18.426A9.047,9.047,0,1,1,17.468,6.07a.617.617,0,1,1-1.148.451,7.813,7.813,0,1,0,0,5.717.617.617,0,1,1,1.148.451,9,9,0,0,1-8.42,5.737Zm0,0"/></g></svg>