<svg xmlns="http://www.w3.org/2000/svg" width="10.924" height="12.912" viewBox="0 0 10.924 12.912">
  <g id="Group_555" data-name="Group 555" transform="translate(896.547 -1016.931) rotate(45)">
    <path id="Shape" d="M.131,5.255a.458.458,0,0,0,0,.641l.707.721a.458.458,0,0,0,.654,0L4.6,3.443a.458.458,0,0,1,.654,0l.169.173a.458.458,0,0,0,.785-.32V.886A.458.458,0,0,0,5.755.428H3.217a.414.414,0,0,0-.274.653l.326.333a.458.458,0,0,1,0,.641Z" transform="translate(92.603 1350.848)" fill="#f4bd00"/>
    <path id="Shape-2" data-name="Shape" d="M.4,5.869a.458.458,0,0,0,.458.458H3.4a.414.414,0,0,0,.274-.653l-.326-.333a.458.458,0,0,1,0-.641L6.482,1.5a.458.458,0,0,0,0-.641L5.775.137a.458.458,0,0,0-.654,0L2.008,3.312a.458.458,0,0,1-.654,0l-.169-.173a.458.458,0,0,0-.785.32Z" transform="translate(87.887 1349.87)" fill="#f4bd00"/>
  </g>
</svg>
