<svg xmlns="http://www.w3.org/2000/svg" width="37.43" height="37.43" viewBox="0 0 37.43 37.43">
  <g id="Group_1151" data-name="Group 1151" transform="translate(-9014 2126)">
    <path id="Path_243" data-name="Path 243" d="M79.309,187.527c-1.113-4.873-3.85-8.314-8.734-9.836a25.161,25.161,0,0,0-6.679-1.068,36.209,36.209,0,0,0-11.278.91,12.066,12.066,0,0,0-8.791,8.245,25.93,25.93,0,0,0-1.193,7.451,36.18,36.18,0,0,0,.818,10.313c1.113,4.237,3.475,7.406,7.712,8.973a22.175,22.175,0,0,0,6.372,1.318,40.284,40.284,0,0,0,11.437-.555c5.486-1.2,8.961-4.475,10.267-9.984a33.2,33.2,0,0,0,.772-8.11A31.27,31.27,0,0,0,79.309,187.527Z" transform="translate(8971.401 -2302.56)" fill="#002db0"/>
    <g id="Group_480" data-name="Group 480" transform="translate(9021.413 -2115.309)">
      <path id="Shape" d="M.265,10.189a.926.926,0,0,0,0,1.3L1.7,12.944a.926.926,0,0,0,1.322,0l6.295-6.42a.926.926,0,0,1,1.322,0l.342.349a.926.926,0,0,0,1.587-.648V1.354a.926.926,0,0,0-.926-.926H6.5A.836.836,0,0,0,5.95,1.749l.66.672a.926.926,0,0,1,0,1.3Z" transform="translate(8.726 2.414)" fill="#fff"/>
      <path id="Shape-2" data-name="Shape" d="M.4,11.868a.926.926,0,0,0,.926.926H6.459a.836.836,0,0,0,.554-1.321l-.66-.672a.926.926,0,0,1,0-1.3L12.7,3.032a.926.926,0,0,0,0-1.3L11.268.278a.926.926,0,0,0-1.322,0L3.651,6.7a.926.926,0,0,1-1.322,0l-.342-.349A.926.926,0,0,0,.4,7Z" transform="translate(-0.401 0)" fill="#fff"/>
    </g>
  </g>
</svg>
