<svg xmlns="http://www.w3.org/2000/svg" width="188" height="63.643" viewBox="0 0 188 63.643"><defs><style>.a{fill:#f6f6f6;}</style></defs><path class="a" d="M7.637,0H180.363A7.643,7.643,0,0,1,188,7.637V56.005a7.643,7.643,0,0,1-7.637,7.637H7.637A7.643,7.643,0,0,1,0,56.005V7.637A7.643,7.643,0,0,1,7.637,0Z"/><path d="M155.457,107.169a8.207,8.207,0,0,1,3.895-6.873,8.442,8.442,0,0,0-6.606-3.577c-2.775-.293-5.473,1.667-6.886,1.667-1.438,0-3.628-1.629-5.97-1.591a8.778,8.778,0,0,0-7.4,4.519c-3.195,5.537-.815,13.683,2.253,18.164,1.54,2.189,3.322,4.646,5.677,4.557,2.291-.089,3.157-1.464,5.919-1.464s3.551,1.464,5.944,1.413c2.469-.038,4.009-2.2,5.5-4.417a17.955,17.955,0,0,0,2.508-5.117,7.939,7.939,0,0,1-4.837-7.281m-4.519-13.39A8.075,8.075,0,0,0,152.784,88a8.188,8.188,0,0,0-5.308,2.749,7.744,7.744,0,0,0-1.9,5.562,6.784,6.784,0,0,0,5.359-2.533M188.7,123.716H185.5l-1.757-5.524h-6.11l-1.667,5.524h-3.118l6.046-18.8h3.742Zm-5.486-7.841-1.591-4.9c-.165-.509-.484-1.68-.942-3.539h-.064c-.191.8-.484,1.986-.891,3.539l-1.566,4.9Zm21.027.9a7.635,7.635,0,0,1-1.884,5.461,5.488,5.488,0,0,1-4.175,1.782,4.181,4.181,0,0,1-3.869-1.922v7.115H191.3v-14.6c0-1.451-.038-2.928-.115-4.455h2.648l.165,2.151h.051a5.346,5.346,0,0,1,8.566-.535,7.374,7.374,0,0,1,1.629,5Zm-3.068.1a5.533,5.533,0,0,0-.891-3.258,3.085,3.085,0,0,0-2.622-1.336,3.2,3.2,0,0,0-2.024.738,3.409,3.409,0,0,0-1.184,1.935,4.121,4.121,0,0,0-.14.916v2.266a3.644,3.644,0,0,0,.9,2.495,3.008,3.008,0,0,0,2.355,1.018,3.107,3.107,0,0,0,2.648-1.311A5.75,5.75,0,0,0,201.178,116.881Zm18.647-.1a7.635,7.635,0,0,1-1.884,5.461,5.488,5.488,0,0,1-4.175,1.782A4.181,4.181,0,0,1,209.9,122.1v7.115H206.88v-14.6c0-1.451-.038-2.928-.115-4.455h2.648l.165,2.151h.051a5.346,5.346,0,0,1,8.566-.535,7.374,7.374,0,0,1,1.629,5Zm-3.068.1a5.533,5.533,0,0,0-.891-3.258,3.085,3.085,0,0,0-2.622-1.336,3.2,3.2,0,0,0-2.024.738,3.477,3.477,0,0,0-1.184,1.935,4.121,4.121,0,0,0-.14.916v2.266a3.644,3.644,0,0,0,.9,2.495,3.008,3.008,0,0,0,2.355,1.018,3.092,3.092,0,0,0,2.648-1.311A5.664,5.664,0,0,0,216.757,116.881Zm20.506,1.566a5.034,5.034,0,0,1-1.667,3.908A7.4,7.4,0,0,1,230.479,124a8.954,8.954,0,0,1-4.862-1.171l.7-2.508a8.455,8.455,0,0,0,4.353,1.171,4.1,4.1,0,0,0,2.648-.764,2.5,2.5,0,0,0,.955-2.049,2.651,2.651,0,0,0-.776-1.922,7.268,7.268,0,0,0-2.6-1.451c-3.322-1.235-4.964-3.029-4.964-5.384a4.775,4.775,0,0,1,1.744-3.793,6.917,6.917,0,0,1,4.62-1.477,9.083,9.083,0,0,1,4.264.891l-.764,2.444a7.513,7.513,0,0,0-3.615-.866,3.75,3.75,0,0,0-2.495.776,2.259,2.259,0,0,0-.751,1.706,2.285,2.285,0,0,0,.866,1.833,9.711,9.711,0,0,0,2.737,1.451,9.175,9.175,0,0,1,3.564,2.291,4.763,4.763,0,0,1,1.158,3.271m9.979-6.021H243.92v6.581c0,1.667.586,2.508,1.757,2.508a5.588,5.588,0,0,0,1.336-.14l.089,2.291a6.985,6.985,0,0,1-2.342.331,3.6,3.6,0,0,1-2.788-1.095,5.313,5.313,0,0,1-1.006-3.653v-6.835h-1.973V110.16h1.973v-2.482l2.953-.891v3.373h3.322Zm14.943,4.4a7.446,7.446,0,0,1-1.782,5.13,6.379,6.379,0,0,1-4.964,2.062,6.109,6.109,0,0,1-4.76-1.973,7.166,7.166,0,0,1-1.769-4.99,7.393,7.393,0,0,1,1.82-5.155,6.352,6.352,0,0,1,4.926-2.011,6.194,6.194,0,0,1,4.8,1.986A7.075,7.075,0,0,1,262.185,116.83Zm-3.118.064a6.075,6.075,0,0,0-.8-3.195,3.125,3.125,0,0,0-5.473,0,6.892,6.892,0,0,0,0,6.453,3.092,3.092,0,0,0,5.448-.025A6.168,6.168,0,0,0,259.067,116.894Zm12.919-4.086a5.581,5.581,0,0,0-.955-.076,2.842,2.842,0,0,0-2.457,1.2,4.541,4.541,0,0,0-.751,2.673v7.115h-3.017v-9.292c0-1.566-.025-2.991-.089-4.264h2.622l.115,2.6h.089a4.621,4.621,0,0,1,1.5-2.151,3.664,3.664,0,0,1,2.177-.726,6.341,6.341,0,0,1,.751.051Zm13.467,3.488a6.887,6.887,0,0,1-.115,1.362H276.3a3.929,3.929,0,0,0,1.311,3.068,4.513,4.513,0,0,0,2.953.942,10.14,10.14,0,0,0,3.653-.636l.471,2.087a11.311,11.311,0,0,1-4.544.84,6.584,6.584,0,0,1-4.951-1.858,6.861,6.861,0,0,1-1.795-4.977,7.777,7.777,0,0,1,1.68-5.1,5.767,5.767,0,0,1,4.735-2.177,5.03,5.03,0,0,1,4.43,2.177A7.362,7.362,0,0,1,285.453,116.3Zm-2.877-.776a4.058,4.058,0,0,0-.586-2.317,2.628,2.628,0,0,0-2.393-1.26,2.861,2.861,0,0,0-2.393,1.222,4.527,4.527,0,0,0-.891,2.342Z" transform="translate(-114.306 -76.799)"/><path d="M476.5,101.425h-1.578l-.866-2.711h-3l-.827,2.711H468.7l2.966-9.241H473.5Zm-2.711-3.857-.776-2.418c-.076-.242-.229-.827-.471-1.744h-.025c-.1.395-.229.967-.445,1.744l-.764,2.418Zm10.145-2.813-2.52,6.67h-1.438l-2.444-6.67h1.591l1.133,3.526c.191.586.356,1.146.484,1.68h.038c.115-.484.28-1.044.484-1.68l1.12-3.526Zm5.371,6.67-.115-.764h-.038a2.291,2.291,0,0,1-1.947.916,1.934,1.934,0,0,1-2.037-1.96c0-1.642,1.426-2.495,3.895-2.495V97c0-.878-.471-1.311-1.387-1.311a3.109,3.109,0,0,0-1.744.5l-.305-.967a4.279,4.279,0,0,1,2.291-.573c1.744,0,2.622.916,2.622,2.762v2.457a8.873,8.873,0,0,0,.1,1.591Zm-.2-3.322c-1.642,0-2.469.395-2.469,1.349a.944.944,0,0,0,1.018,1.044,1.416,1.416,0,0,0,1.451-1.362Zm4.735-4.442a.885.885,0,1,1,.929-.891A.867.867,0,0,1,493.839,93.66Zm-.713,1.095H494.6v6.657h-1.477Zm4.111-3.055h1.477v9.712h-1.477ZM505,101.425l-.115-.764h-.038a2.291,2.291,0,0,1-1.947.916,1.934,1.934,0,0,1-2.037-1.96c0-1.642,1.426-2.495,3.895-2.495V97c0-.878-.471-1.311-1.387-1.311a3.109,3.109,0,0,0-1.744.5l-.305-.98a4.279,4.279,0,0,1,2.291-.573c1.744,0,2.622.916,2.622,2.762v2.457a10.52,10.52,0,0,0,.089,1.591H505Zm-.2-3.322c-1.642,0-2.469.395-2.469,1.349a.944.944,0,0,0,1.018,1.044,1.416,1.416,0,0,0,1.451-1.362Zm7.446,3.475a2.268,2.268,0,0,1-2.1-1.184h-.025l-.089,1.031h-1.26c.038-.535.051-1.133.051-1.795V91.7h1.489v4.035h.025a2.29,2.29,0,0,1,2.126-1.107c1.6,0,2.724,1.375,2.724,3.373C515.184,100.063,513.937,101.577,512.244,101.577Zm-.305-5.791a1.7,1.7,0,0,0-1.629,1.769v1.171a1.628,1.628,0,0,0,1.6,1.667c1.107,0,1.769-.9,1.769-2.342C513.682,96.7,513,95.786,511.939,95.786Zm5.435-4.086h1.477v9.712h-1.477Zm9.534,6.746h-4.442a1.912,1.912,0,0,0,2.1,1.973,5.007,5.007,0,0,0,1.795-.318l.229,1.031a5.4,5.4,0,0,1-2.228.407,3.093,3.093,0,0,1-3.322-3.36c0-2.037,1.26-3.577,3.157-3.577,1.693,0,2.775,1.26,2.775,3.169A2.581,2.581,0,0,1,526.907,98.446Zm-1.349-1.056c0-1.031-.522-1.757-1.464-1.757a1.756,1.756,0,0,0-1.617,1.757Zm10.323,4.188a3.168,3.168,0,0,1-3.208-3.424A3.243,3.243,0,0,1,536,94.628a3.144,3.144,0,0,1,3.208,3.411,3.268,3.268,0,0,1-3.322,3.539Zm.064-5.868c-1.069,0-1.757,1.006-1.757,2.393s.7,2.368,1.744,2.368,1.744-1.069,1.744-2.406-.687-2.355-1.731-2.355Zm11.214,5.715h-1.476V97.593c0-1.184-.458-1.769-1.349-1.769a1.531,1.531,0,0,0-1.477,1.629v3.959H541.38V96.664c0-.586-.013-1.222-.051-1.909h1.3l.064,1.031h.038a2.4,2.4,0,0,1,2.113-1.171c1.4,0,2.317,1.069,2.317,2.813Zm9.686-5.55h-1.629v3.233c0,.827.293,1.235.866,1.235a3.239,3.239,0,0,0,.662-.064l.038,1.12a3.209,3.209,0,0,1-1.146.165c-1.171,0-1.858-.649-1.858-2.329v-3.36h-.967V94.768h.967V93.546l1.451-.446v1.655h1.629v1.12m7.828,5.55h-1.477V97.619c0-1.2-.458-1.795-1.349-1.795a1.451,1.451,0,0,0-1.477,1.578v4.009h-1.477V91.7h1.477v4h.025a2.239,2.239,0,0,1,2-1.082c1.413,0,2.278,1.095,2.278,2.838Zm7.561-2.978H567.8a1.912,1.912,0,0,0,2.1,1.973,5.007,5.007,0,0,0,1.795-.318l.229,1.031a5.4,5.4,0,0,1-2.227.407,3.093,3.093,0,0,1-3.322-3.36c0-2.037,1.26-3.577,3.157-3.577,1.693,0,2.775,1.26,2.775,3.169a2.581,2.581,0,0,1-.064.675ZM570.9,97.39c0-1.031-.522-1.757-1.464-1.757a1.746,1.746,0,0,0-1.616,1.757Z" transform="translate(-409.041 -80.028)"/></svg>