<svg xmlns="http://www.w3.org/2000/svg" width="15.4" height="15.4" viewBox="0 0 15.4 15.4"><g transform="translate(-1184.1 -673.1)"><path d="M2-.5H7A2.5,2.5,0,0,1,9.5,2V7A2.5,2.5,0,0,1,7,9.5H2A2.5,2.5,0,0,1-.5,7V2A2.5,2.5,0,0,1,2-.5Zm5,9A1.5,1.5,0,0,0,8.5,7V2A1.5,1.5,0,0,0,7,.5H2A1.5,1.5,0,0,0,.5,2V7A1.5,1.5,0,0,0,2,8.5Z" transform="translate(1190 679)" fill="#fff"/><path d="M4.22,12.12H3.48A1.982,1.982,0,0,1,1.5,10.14V3.48A1.982,1.982,0,0,1,3.48,1.5h6.66a1.982,1.982,0,0,1,1.98,1.98v.74a.5.5,0,0,1-1,0V3.48a.981.981,0,0,0-.98-.98H3.48a.981.981,0,0,0-.98.98v6.66a.981.981,0,0,0,.98.98h.74a.5.5,0,0,1,0,1Z" transform="translate(1182.6 671.6)" fill="#fff"/></g></svg>