<svg xmlns="http://www.w3.org/2000/svg" width="17" height="21" viewBox="0 0 17 21"><g transform="translate(-1160.5 -188.5)"><path d="M6,1.5h8a.5.5,0,0,1,.354.146l6,6A.5.5,0,0,1,20.5,8V20A2.5,2.5,0,0,1,18,22.5H6A2.5,2.5,0,0,1,3.5,20V4A2.5,2.5,0,0,1,6,1.5Zm7.793,1H6A1.5,1.5,0,0,0,4.5,4V20A1.5,1.5,0,0,0,6,21.5H18A1.5,1.5,0,0,0,19.5,20V8.207Z" transform="translate(1157 187)" fill="#053ec4"/><path d="M20,8.5H14a.5.5,0,0,1-.5-.5V2a.5.5,0,0,1,1,0V7.5H20a.5.5,0,0,1,0,1Z" transform="translate(1157 187)" fill="#053ec4"/><path d="M0,6.5A.5.5,0,0,1-.5,6V0A.5.5,0,0,1,0-.5.5.5,0,0,1,.5,0V6A.5.5,0,0,1,0,6.5Z" transform="translate(1169 199)" fill="#053ec4"/><path d="M6,.5H0A.5.5,0,0,1-.5,0,.5.5,0,0,1,0-.5H6a.5.5,0,0,1,.5.5A.5.5,0,0,1,6,.5Z" transform="translate(1166 202)" fill="#053ec4"/></g></svg>