<svg xmlns="http://www.w3.org/2000/svg" width="74.224" height="61.764" viewBox="0 0 74.224 61.764">
  <g id="Group_1158" data-name="Group 1158" transform="translate(-934.654 -141.948)">
    <path id="Path_243" data-name="Path 243" d="M100.64,193.9c-1.76-7.7-6.088-13.144-13.809-15.55a39.783,39.783,0,0,0-10.559-1.688c-6-.215-11.978-.215-17.831,1.439-6.9,1.938-11.654,6.139-13.9,13.034a40.991,40.991,0,0,0-1.886,11.78c-.144,5.477-.126,10.952,1.293,16.305,1.76,6.7,5.494,11.708,12.193,14.186a35.07,35.07,0,0,0,10.074,2.083,63.7,63.7,0,0,0,18.082-.878c8.673-1.9,14.168-7.075,16.233-15.784A52.481,52.481,0,0,0,101.752,206,49.434,49.434,0,0,0,100.64,193.9Z" transform="translate(892.056 -34.612)" fill="#101654" opacity="0.18" style="mix-blend-mode: multiply;isolation: isolate"/>
    <g id="_2" data-name="2" transform="translate(939.688 142.603)">
      <rect id="Rectangle" width="30.04" height="30.04" transform="matrix(0.638, -0.77, 0.77, 0.638, 0, 23.129)" fill="#f4bd00"/>
      <path id="Path" d="M1.582,0S-.366,1.859.061,2.334s3.66,0,3.66,0,.19.856,1.521.808,4.04,0,4.04,0" transform="translate(38.068 21.535)" fill="#bdcbef"/>
      <path id="Path-2" data-name="Path" d="M.395,7.673l7.665,7.3S10.2,26.143,11.982,28.368s10.837,9,10.837,9L31.3,46.774l13.261-6.69-6.417-7.643s1.456-13.789.529-16.4C38,14.147,30.049,7.2,24.973,2.459A9.134,9.134,0,0,0,17.513.083L2.848,2.065a.668.668,0,0,0-.308,1.2l1.6,1.184,12.975.094,7.953,13.672L17.3,18.089S9.078,3.51.956,5.527A1.266,1.266,0,0,0,.395,7.673Z" transform="translate(24.626 14.335)" fill="#fff"/>
      <path id="Path-3" data-name="Path" d="M12.3,14.147S4.317,2.405,2.731,1.029A4.6,4.6,0,0,0,0,0" transform="translate(43.31 14.336)" fill="none" stroke="#717a7f" stroke-miterlimit="10" stroke-width="0.55"/>
      <path id="Path-4" data-name="Path" d="M13.783,12.927S5.777,4.6,2.69,1.591A5.636,5.636,0,0,0,0,0" transform="translate(45.866 14.685)" fill="none" stroke="#717a7f" stroke-miterlimit="10" stroke-width="0.55"/>
      <path id="Path-5" data-name="Path" d="M41.9,6.216,4.739,4.565,0,1.74,5.153,0,42.1,1.643a2.288,2.288,0,0,1,2.188,2.39h0A2.286,2.286,0,0,1,41.9,6.216Z" transform="translate(20.654 18.236)" fill="#101654"/>
      <path id="Path-6" data-name="Path" d="M9.994,3.541,1.249,3.152.394,2.338A1.268,1.268,0,0,1,.955.191C4.116-.593,7.289,1.136,9.994,3.541Z" transform="translate(24.627 19.746)" fill="#fff"/>
      <ellipse id="Oval" cx="1.081" cy="1.081" rx="1.081" ry="1.081" transform="translate(61.657 21.048)" fill="#fff"/>
      <path id="Path-7" data-name="Path" d="M0,.423S1.946,2.36,3.13,0" transform="translate(27.755 15.936)" opacity="0.2"/>
      <path id="Path-8" data-name="Path" d="M.018,1.239S-.3-.2,1.726.023,4.031,1.858,3.3,2.4a2.431,2.431,0,0,1-1.588.445" transform="translate(25.687 21.417)" opacity="0.2"/>
      <path id="Path-9" data-name="Path" d="M0,13.432S1.711.339,4.23.007s2.757,11.55,3.853,11.669,2.96-3.536,2.96-3.536" transform="translate(9.611 11.837)" fill="none" stroke="#101654" stroke-linecap="round" stroke-miterlimit="10" stroke-width="2"/>
    </g>
  </g>
</svg>
