<svg xmlns="http://www.w3.org/2000/svg" width="20.62" height="17" viewBox="0 0 20.62 17"><g transform="translate(-0.494 -2.502)"><path d="M15.133,16.067a.5.5,0,0,1-.354-.146l-3.213-3.213L8.354,15.92a.5.5,0,1,1-.707-.707l3.567-3.567a.5.5,0,0,1,.707,0l3.567,3.567a.5.5,0,0,1-.354.854Z" transform="translate(-0.759 -0.975)" fill="#fff"/><path d="M0,8.5A.5.5,0,0,1-.5,8V0A.5.5,0,0,1,0-.5.5.5,0,0,1,.5,0V8A.5.5,0,0,1,0,8.5Z" transform="translate(10.995 11.002)" fill="#fff"/><path d="M18.289,17.223a.5.5,0,0,1-.24-.939A3.958,3.958,0,0,0,16.157,8.85H15.034a.5.5,0,0,1-.484-.375A6.633,6.633,0,1,0,3.157,14.528a.5.5,0,0,1-.749.662,7.633,7.633,0,1,1,13-7.34h.746a4.958,4.958,0,0,1,2.37,9.312A.5.5,0,0,1,18.289,17.223Z" transform="translate(0 0)" fill="#fff"/><path d="M15.133,16.067a.5.5,0,0,1-.354-.146l-3.213-3.213L8.354,15.92a.5.5,0,1,1-.707-.707l3.567-3.567a.5.5,0,0,1,.707,0l3.567,3.567a.5.5,0,0,1-.354.854Z" transform="translate(-0.759 -0.975)" fill="#fff"/></g></svg>