<svg xmlns="http://www.w3.org/2000/svg" width="32" height="32" viewBox="0 0 32 32"><path d="M26,32H6a6,6,0,0,1-6-6V6A6,6,0,0,1,6,0H26a6,6,0,0,1,6,6V26A6,6,0,0,1,26,32Z" fill="#f4bd00"/><g transform="translate(8 8.5)"><path d="M2,14a2.005,2.005,0,0,1-2-2V1.833a.654.654,0,0,1,.033-.165A2,2,0,0,1,2,0h9.334a1.337,1.337,0,0,1,1.333,1.333V2.667h.667A1.337,1.337,0,0,1,14.667,4V5.333H13a3,3,0,0,0,0,6h1.667v1.333A1.337,1.337,0,0,1,13.333,14ZM1.333,2A.67.67,0,0,0,2,2.667h9.333V1.333H2A.67.67,0,0,0,1.333,2Z" fill="#013ec4"/><g transform="translate(11 6.333)"><path d="M23.5,14.833H21a2,2,0,1,0,0,4h2.5a.5.5,0,0,0,.5-.5v-3A.5.5,0,0,0,23.5,14.833ZM21,17.5a.667.667,0,1,1,.667-.667A.667.667,0,0,1,21,17.5Z" transform="translate(-19 -14.833)" fill="#013ec4"/></g></g></svg>